<?xml version="1.0" standalone="no"?>
<!DOCTYPE svg PUBLIC "-//W3C//DTD SVG 20010904//EN"
 "http://www.w3.org/TR/2001/REC-SVG-20010904/DTD/svg10.dtd">
<svg version="1.0" xmlns="http://www.w3.org/2000/svg"
 width="768.000000pt" height="768.000000pt" viewBox="0 0 768.000000 768.000000"
 preserveAspectRatio="xMidYMid meet">

<g transform="translate(0.000000,768.000000) scale(0.100000,-0.100000)"
fill="#000000" stroke="none">
<path d="M3252 5429 c-775 -90 -1446 -323 -1714 -596 -85 -85 -116 -131 -145
-211 -39 -106 -24 -247 35 -341 34 -55 105 -141 129 -156 24 -16 26 -15 109
64 194 187 500 343 896 457 110 31 407 95 510 109 l46 6 7 72 c10 104 39 205
84 302 49 104 88 163 165 243 l59 62 -54 -1 c-30 -1 -87 -5 -127 -10z"/>
<path d="M5354 5098 c-65 -79 -168 -201 -228 -271 -60 -70 -107 -129 -105
-131 2 -2 53 -15 113 -30 434 -107 797 -285 1020 -498 l71 -68 38 38 c121 117
171 229 165 371 -3 77 -7 96 -41 165 -85 171 -307 336 -634 472 -97 40 -250
94 -268 94 -6 0 -65 -64 -131 -142z"/>
<path d="M776 4223 c-7 -54 8 -356 24 -477 36 -280 96 -513 197 -771 195 -495
480 -890 942 -1308 305 -275 366 -335 448 -437 157 -194 223 -373 227 -614 l3
-131 1283 0 1283 0 3 130 c3 143 18 223 63 336 87 220 191 341 638 742 407
365 684 737 874 1172 179 413 278 892 267 1292 l-3 112 -70 -86 c-163 -199
-410 -389 -706 -542 -185 -96 -343 -163 -554 -233 -477 -158 -963 -240 -1581
-264 l-171 -6 -12 -53 c-13 -58 -65 -145 -87 -145 -39 0 -134 127 -134 181 0
19 -55 29 -154 29 -255 0 -834 86 -1181 175 -690 178 -1291 525 -1562 903
l-30 42 -7 -47z m2354 -1205 c23 -51 25 -87 6 -133 -32 -75 -93 -59 -103 27
-3 26 -3 58 1 71 6 27 49 77 66 77 6 0 20 -19 30 -42z m282 -224 c35 -18 78
-81 78 -114 0 -35 -17 -50 -56 -50 -58 0 -114 65 -114 133 0 58 24 66 92 31z
m-462 -204 c0 -43 -33 -123 -69 -169 -18 -22 -55 -51 -85 -66 -45 -22 -64 -25
-122 -23 l-69 3 3 40 c4 53 43 132 85 173 46 44 118 71 195 72 l62 0 0 -30z"/>
</g>
</svg>
